<?xml version="1.0" encoding="UTF-8" standalone="no"?>
<!DOCTYPE svg PUBLIC "-//W3C//DTD SVG 1.1//EN" "http://www.w3.org/Graphics/SVG/1.1/DTD/svg11.dtd">
<svg width="13px" height="13px" viewBox="0 0 57 101" version="1.1" xmlns="http://www.w3.org/2000/svg" xmlns:xlink="http://www.w3.org/1999/xlink" xml:space="preserve" xmlns:serif="http://www.serif.com/" style="fill-rule:evenodd;clip-rule:evenodd;stroke-linejoin:round;stroke-miterlimit:2;">
    <g transform="matrix(1,0,0,1,0.000915507,0.00210574)">
        <g>
            <clipPath id="_clip1">
                <rect x="0" y="0" width="56.349" height="100"/>
            </clipPath>
            <g clip-path="url(#_clip1)">
                <g>
                    <path d="M55.734,35.846L16.073,99.377L29.149,59.935L17.122,66.874L27.879,41.153L17.122,47.359L26.38,18.798L43.936,9.517L35.687,29.349L45.813,23.498L36.112,47.146L55.734,35.83L55.734,35.846Z" style="fill:rgb(253,255,109);fill-rule:nonzero;"/>
                    <path d="M45.813,23.506L35.687,29.357L39.606,19.934L45.813,23.514L45.813,23.506Z" style="fill-rule:nonzero;"/>
                    <path d="M43.936,9.525L26.38,18.806L10.931,9.888L28.486,0.615L43.936,9.525Z" style="fill:rgb(88,0,205);fill-rule:nonzero;"/>
                    <path d="M43.628,28.852L55.734,35.846L36.112,47.161L43.628,28.852Z" style="fill-rule:nonzero;"/>
                    <path d="M29.149,59.943L16.073,99.385L0.615,90.467L9.834,62.672L17.13,66.874L29.157,59.935L29.149,59.943Z" style="fill-rule:nonzero;"/>
                    <path d="M27.879,41.161L17.122,66.882L1.672,57.972L8.241,42.257L17.114,47.374L27.871,41.169L27.879,41.161Z" style="fill-rule:nonzero;"/>
                    <path d="M26.38,18.806L17.122,47.366L1.664,38.456L10.931,9.888L26.38,18.806Z" style="fill:rgb(88,0,205);fill-rule:nonzero;"/>
                    <path d="M16.073,100C15.986,100 15.899,99.984 15.813,99.945C15.529,99.811 15.395,99.488 15.489,99.196L28.06,61.292L17.437,67.418C17.208,67.552 16.917,67.521 16.719,67.347C16.522,67.174 16.459,66.89 16.562,66.646L26.609,42.612L17.429,47.903C17.208,48.029 16.932,48.005 16.735,47.847C16.538,47.69 16.459,47.422 16.538,47.177L25.797,18.617C25.844,18.467 25.955,18.341 26.097,18.262L43.652,8.981C43.881,8.863 44.164,8.894 44.354,9.068C44.543,9.241 44.606,9.517 44.504,9.762L36.956,27.914L45.505,22.977C45.734,22.843 46.018,22.875 46.223,23.048C46.42,23.222 46.491,23.506 46.389,23.75L37.374,45.734L55.434,35.318C55.679,35.176 55.986,35.223 56.184,35.42C56.381,35.625 56.412,35.933 56.262,36.177L16.593,99.708C16.475,99.897 16.278,100 16.073,100ZM29.149,59.328C29.291,59.328 29.425,59.376 29.535,59.47C29.732,59.628 29.811,59.896 29.732,60.14L18.273,94.685L53.897,37.612L36.412,47.698C36.183,47.832 35.899,47.8 35.702,47.627C35.505,47.453 35.434,47.169 35.537,46.933L44.551,24.957L35.994,29.901C35.765,30.035 35.474,30.003 35.276,29.83C35.079,29.656 35.016,29.372 35.111,29.128L42.698,10.882L26.877,19.24L18.186,46.034L27.555,40.632C27.784,40.498 28.076,40.53 28.273,40.703C28.47,40.877 28.533,41.161 28.431,41.405L18.384,65.439L28.825,59.415C28.92,59.36 29.03,59.336 29.133,59.336L29.149,59.328Z" style="fill-rule:nonzero;"/>
                    <path d="M26.38,19.421C26.278,19.421 26.168,19.398 26.073,19.342L10.623,10.424C10.331,10.251 10.229,9.88 10.394,9.581C10.568,9.289 10.939,9.186 11.238,9.352L26.688,18.27C26.98,18.444 27.082,18.814 26.917,19.114C26.806,19.311 26.593,19.421 26.38,19.421Z" style="fill-rule:nonzero;"/>
                    <path d="M17.122,47.981C17.019,47.981 16.909,47.958 16.814,47.903L1.356,38.992C1.104,38.85 0.986,38.543 1.08,38.267L10.347,9.699C10.394,9.549 10.505,9.423 10.647,9.344L28.202,0.071C28.392,-0.032 28.612,-0.024 28.802,0.079L44.251,8.989C44.543,9.163 44.646,9.533 44.48,9.833C44.307,10.125 43.936,10.227 43.636,10.062L28.47,1.317L11.443,10.322L2.405,38.172L17.429,46.838C17.721,47.012 17.824,47.382 17.658,47.682C17.548,47.879 17.335,47.989 17.122,47.989L17.122,47.981Z" style="fill-rule:nonzero;"/>
                    <path d="M17.122,67.497C17.019,67.497 16.909,67.474 16.814,67.418L1.364,58.5C1.096,58.343 0.986,58.011 1.104,57.728L7.674,42.012C7.808,41.697 8.163,41.547 8.478,41.681C8.793,41.815 8.943,42.17 8.809,42.485L2.445,57.704L17.429,66.346C17.721,66.519 17.824,66.89 17.658,67.19C17.548,67.387 17.335,67.497 17.122,67.497Z" style="fill-rule:nonzero;"/>
                    <path d="M16.065,100C15.962,100 15.852,99.976 15.757,99.921L0.308,91.003C0.055,90.853 -0.063,90.554 0.032,90.278L9.251,62.482C9.361,62.159 9.708,61.986 10.032,62.088C10.355,62.198 10.528,62.545 10.426,62.869L1.356,90.183L16.372,98.841C16.664,99.014 16.767,99.385 16.601,99.685C16.491,99.882 16.278,99.992 16.065,99.992L16.065,100Z" style="fill-rule:nonzero;"/>
                    <path d="M55.734,36.461C55.632,36.461 55.521,36.438 55.426,36.382L43.321,29.388C43.029,29.215 42.926,28.844 43.092,28.544C43.266,28.253 43.636,28.15 43.936,28.316L56.042,35.31C56.333,35.483 56.436,35.854 56.27,36.154C56.16,36.351 55.947,36.461 55.734,36.461Z" style="fill-rule:nonzero;"/>
                    <path d="M45.813,24.129C45.71,24.129 45.6,24.105 45.505,24.05L39.299,20.47C39.007,20.297 38.904,19.926 39.07,19.626C39.243,19.334 39.614,19.232 39.914,19.398L46.12,22.977C46.412,23.151 46.515,23.522 46.349,23.821C46.239,24.018 46.026,24.129 45.813,24.129Z" style="fill-rule:nonzero;"/>
                </g>
            </g>
        </g>
    </g>
</svg>
